<svg width="512" height="512" viewBox="0 0 512 512" fill="none" xmlns="http://www.w3.org/2000/svg">
  <defs>
    <radialGradient id="bg_main" cx="50%" cy="50%" r="50%" fx="35%" fy="35%">
      <stop offset="0%" stop-color="#ffffff"/>
      <stop offset="40%" stop-color="#f0f4f8"/>
      <stop offset="100%" stop-color="#d9e2ec"/>
    </radialGradient>

    <linearGradient id="ring_grad" x1="0%" y1="0%" x2="100%" y2="100%">
      <stop offset="0%" stop-color="#ffffff" stop-opacity="0.8"/>
      <stop offset="50%" stop-color="#cbd5e0" stop-opacity="0.2"/>
      <stop offset="100%" stop-color="#94a3b8" stop-opacity="0.5"/>
    </linearGradient>

    <linearGradient id="grad_blue_deep" x1="286" y1="349.4" x2="42.5" y2="332.2" gradientUnits="userSpaceOnUse">
      <stop offset="0%" stop-color="#1A1B4B"/>
      <stop offset="50%" stop-color="#452591"/>
      <stop offset="100%" stop-color="#7C3AED"/>
    </linearGradient>

    <linearGradient id="grad_warm_vibrant" x1="246.1" y1="137.7" x2="169.6" y2="299.1" gradientUnits="userSpaceOnUse">
      <stop offset="0%" stop-color="#FFD29D"/>
      <stop offset="50%" stop-color="#FF7E5F"/>
      <stop offset="100%" stop-color="#FEB47B"/>
    </linearGradient>

    <filter id="soft_shadow" x="-20%" y="-20%" width="150%" height="150%">
      <feGaussianBlur in="SourceAlpha" stdDeviation="8"/>
      <feOffset dx="4" dy="10" result="offsetblur"/>
      <feComponentTransfer>
        <feFuncA type="linear" slope="0.3"/>
      </feComponentTransfer>
      <feMerge>
        <feMergeNode/>
        <feMergeNode in="SourceGraphic"/>
      </feMerge>
    </filter>
  </defs>

  <circle cx="256" cy="256" r="240" fill="url(#bg_main)"/>
  
  <circle cx="256" cy="256" r="238" stroke="url(#ring_grad)" stroke-width="4"/>
  
  <circle cx="256" cy="256" r="230" stroke="#000" stroke-opacity="0.03" stroke-width="1"/>

  <g filter="url(#soft_shadow)" transform="translate(48, 55) scale(0.95)">
    <path d="M136.9 318.5L97 339.6C97 339.6 116.2 366.6 148.8 378.5C190.2 393.7 226.8 394.3 264.9 367.4C293.3 347.4 284.8 314 284.8 314C284.8 314 273.4 352.1 246.5 355.2C200.6 360.4 177.5 318.5 136.9 318.5Z" 
      fill="url(#grad_blue_deep)" stroke="#0E0E0E" stroke-width="1.5" stroke-linejoin="round"/>

    <path d="M119.7 184.1C141.2 219.4 186 224 186 224C186 224 151.5 203.9 137.1 181.5C117 150.3 120.1 118 120.1 118L111 151.8C111 164.1 119.7 184.1 119.7 184.1Z" 
      fill="url(#grad_blue_deep)" stroke="#0E0E0E" stroke-width="1.5" stroke-linejoin="round"/>

    <path d="M307.2 358.2C320.8 344.1 323.7 330.9 323.7 330.9C323.7 330.9 323.3 274.4 301.6 248.3C287.6 231.4 196.1 178 196.1 178C171.1 164.7 165.7 158 165.7 158C165.7 158 157.7 178.6 160.2 189.1C162.7 199.7 185.2 223.6 222.7 245.3C280.4 278.6 290.7 305.3 290.7 330.4C290.7 357.6 259.2 376 259.2 376C259.2 376 274.7 376.6 284.2 373.2C294 369.6 307.2 358.2 307.2 358.2Z" 
      fill="url(#grad_blue_deep)" stroke="#0E0E0E" stroke-width="1.5" stroke-linejoin="round"/>

    <path d="M194.7 148C194.7 148 200.2 160.8 219.8 173.1C219.8 173.1 244.3 189.1 258.8 195.9C273.2 202.7 302.3 220.4 302.3 220.4C314.7 227.6 329.2 242.3 333.8 266.7C338.4 291 323 333 323 333C323 333 323.3 280.2 308 257C297.1 240.5 282.5 232 258.8 216.5C235.1 201 208.4 185.3 201.2 179.8C191.2 172 169.7 155.2 169.7 155.2C169.7 151.3 194.7 148 194.7 148Z" 
      fill="url(#grad_warm_vibrant)" stroke="#0E0E0E" stroke-width="1.5" stroke-linejoin="round"/>

    <path d="M189.4 99.4H217.9L184.4 103.9C184.4 103.9 159.4 121.4 155.9 130.4C165.3 127 174.4 124.1 184.4 122.9C178.9 124.9 157.6 131.5 152.6 135.5C147.6 139.5 144.5 150.2 144.6 162.5C144.6 175.5 146.1 188 160.1 199C160.1 199 160 198.1 159.6 197.5C157.3 194.4 150.8 185 152.6 175C154.4 164.4 157.7 153.4 165.6 148.5C174.1 143.2 247.9 137.8 247.9 123.4C246.3 123.7 218.1 126.1 211.6 123.4C203.1 120 197.6 116.5 197.6 116.5C197.6 116.5 227.9 123.9 243.4 117.9C258.9 111.9 267.1 98.4 267.1 98.4C263.5 97.9 247.9 101.4 243.4 101.4C238.9 101.4 226.9 98.4 226.9 98.4C226.9 98.4 260.6 95.4 269.9 90.4C279.2 85.4 285.9 72.9 287.9 65.9C289.9 58.9 301.3 55.4 301.3 55.4C301.3 55.4 275.4 42.4 257.9 50.9C253.9 50.9 264.3 38.4 264.3 38.4C264.3 38.4 250.7 36.8 240.9 39.9C231.1 43.1 216.9 56.4 216.9 56.4L221.8 41.5C221.8 41.5 199.6 46 193.6 52.5C187.6 59 178.3 79.4 178.3 79.4L182.1 55.5C182.1 55.5 167.1 66.4 159.4 75.4C151.6 84.4 150.1 94.4 148.1 103.9C148.1 103.9 148.9 87.5 139.4 87.5C112.7 87.5 126.1 167 143 177.5C143 177.5 140.5 165 142 148L146 121L147.5 118.5C148 117.1 145.4 137.4 145.4 137.4C145.4 137.4 159.6 124.9 162.5 116.5C167 103.6 167.4 91.9 167.4 91.9L168.5 97.5L165.6 114.4C178.3 105.8 183.7 86.7 198.1 81.9C194 86.9 187.4 91.2 185.4 97.4C185.4 97.4 210.2 85 220.5 77C230.3 69.4 236.4 55.4 236.4 58.4C236.4 61.5 231.2 71.9 226.4 75.4C223.6 77.5 269.9 60.5 269.9 60.5L255.1 71L229.1 79L247.9 81.4C239.1 83.3 230.7 84.3 221.8 81.9C211.9 90.1 199.2 92.1 189.4 99.4Z" 
      fill="url(#grad_blue_deep)" stroke="#0E0E0E" stroke-width="0.8" stroke-linecap="round" stroke-linejoin="round"/>

    <path d="M319.6 120.4L301.3 120.9C301.3 120.9 312.3 102.9 304.6 89.4C296.8 76 285 78.9 285 78.9C285 78.9 289.3 68 294 63.4C297.3 60.2 304.6 58 304.6 58H319.6V120.4Z" 
      fill="url(#grad_blue_deep)" stroke="#0E0E0E" stroke-width="1.5" stroke-linejoin="round"/>
  </g>
</svg>